<?xml version="1.0" standalone="no"?>
<!DOCTYPE svg PUBLIC "-//W3C//DTD SVG 20010904//EN"
 "http://www.w3.org/TR/2001/REC-SVG-20010904/DTD/svg10.dtd">

<svg width="512" height="512" viewBox="0 0 512 512" xmlns="http://www.w3.org/2000/svg" xmlns:xlink="http://www.w3.org/1999/xlink">
  <defs>
    <svg version="1.0" xmlns="http://www.w3.org/2000/svg" width="225.000000pt" height="225.000000pt" viewBox="0 0 225.000000 225.000000" preserveAspectRatio="xMidYMid meet" display="block" id="home">
      <metadata>
        HOME SVG
      </metadata>
      <g transform="translate(0.000000,225.000000) scale(0.100000,-0.100000)"
      fill="#000000" stroke="black" stroke-width="10">
      <path d="M1080 1823 c-19 -15 -102 -84 -183 -153 -82 -69 -152 -126 -155 -128
      -4 -1 -6 34 -4 78 l4 80 -111 0 -111 0 0 -179 0 -179 -120 -107 c-67 -59 -119
      -112 -117 -119 12 -37 55 -6 397 290 195 168 376 323 401 345 l46 39 399 -345
      c219 -189 407 -345 416 -345 24 0 32 18 16 37 -15 19 -517 460 -658 578 -118
      99 -164 135 -176 135 -5 0 -25 -12 -44 -27z m-400 -257 l0 -84 -47 -41 c-27
      -23 -50 -41 -53 -41 -5 0 -6 226 -2 243 1 4 25 7 52 7 l50 0 0 -84z"/>
      <path d="M793 1417 l-313 -262 3 -380 2 -380 255 0 255 0 5 190 5 190 120 0
      120 0 3 -187 c2 -185 3 -188 25 -193 12 -3 128 -4 257 -3 l235 3 3 380 2 380
      -314 263 c-177 147 -322 262 -333 261 -10 -1 -159 -119 -330 -262z m633 -43
      l294 -246 0 -344 0 -344 -207 2 -208 3 -5 190 -5 190 -150 3 c-82 1 -160 0
      -172 -3 -23 -5 -23 -7 -23 -195 l0 -190 -210 0 -210 0 0 343 0 343 293 246
      c160 136 296 247 301 247 5 1 141 -110 302 -245z"/>
      </g>
    </svg>
    <svg version="1.0" xmlns="http://www.w3.org/2000/svg" width="200.000000pt" height="200.000000pt" viewBox="0 0 200.000000 200.000000" preserveAspectRatio="xMidYMid meet" display="block" id="skills">
      <metadata>
        SKILLS
      </metadata>
      <g transform="translate(0.000000,200.000000) scale(0.100000,-0.100000)"
      fill="#000000" stroke="none">
      <path d="M903 1919 c-516 -49 -884 -508 -824 -1026 48 -415 331 -727 731 -808
      127 -26 344 -17 463 19 314 94 543 329 629 648 19 70 23 109 23 243 0 136 -3
      172 -23 244 -123 450 -528 725 -999 680z m187 -60 c214 -21 385 -101 531 -248
      166 -167 249 -371 249 -616 0 -421 -276 -765 -682 -850 -91 -20 -279 -19 -376
      1 -161 32 -309 113 -426 229 -317 317 -339 835 -51 1189 128 157 351 273 570
      296 38 4 73 8 76 9 4 0 53 -4 109 -10z"/>
      <path d="M708 1499 c-49 -28 -88 -56 -88 -62 1 -7 7 -41 15 -77 13 -63 13 -66
      -9 -100 -13 -19 -32 -50 -42 -69 -16 -28 -31 -38 -84 -56 l-65 -22 -3 -102
      c-2 -60 2 -108 8 -115 5 -7 36 -21 68 -30 56 -17 58 -19 96 -91 l39 -73 -13
      -65 c-6 -36 -9 -70 -6 -75 7 -12 163 -102 177 -102 6 0 32 17 58 38 l46 39 91
      -2 92 -1 51 -43 c58 -49 52 -50 164 16 l77 45 -6 37 c-3 20 -10 53 -14 73 -6
      27 -4 41 6 49 7 6 27 39 44 72 30 60 33 63 93 83 l62 21 3 105 c3 119 4 116
      -76 143 -30 10 -58 26 -66 38 -7 12 -27 46 -45 76 -32 54 -32 55 -21 117 7 35
      9 68 5 73 -10 16 -157 101 -175 101 -8 0 -38 -19 -65 -42 -49 -43 -51 -43
      -126 -43 -76 1 -76 1 -131 48 -30 26 -59 47 -64 47 -5 0 -48 -23 -96 -51z
      m145 -62 l52 -44 96 1 96 1 49 42 50 41 56 -34 56 -34 -9 -38 c-15 -65 -10
      -90 31 -154 23 -34 43 -72 46 -84 4 -17 22 -28 70 -45 l64 -23 0 -67 0 -67
      -52 -18 c-66 -21 -75 -28 -83 -64 -3 -16 -24 -54 -46 -85 l-40 -57 12 -60 c14
      -68 13 -69 -64 -109 l-38 -20 -49 42 c-48 41 -50 41 -107 35 -32 -4 -79 -3
      -105 2 -45 9 -48 8 -90 -29 -23 -21 -46 -38 -51 -39 -4 0 -31 14 -61 30 l-53
      30 13 65 13 64 -33 50 c-19 28 -39 66 -46 85 -9 30 -20 38 -66 56 -30 11 -59
      20 -64 20 -6 0 -10 31 -10 69 l0 69 64 22 c56 18 66 26 75 53 6 18 28 55 47
      84 35 51 36 53 25 103 -18 82 -16 87 42 120 28 16 54 30 55 30 2 0 27 -20 55
      -43z"/>
      <path d="M888 1171 c-121 -77 -119 -268 5 -345 78 -48 202 -33 258 30 85 97
      63 256 -45 319 -64 37 -155 36 -218 -4z m208 -63 c61 -57 64 -152 6 -210 -58
      -58 -153 -55 -209 6 -30 32 -33 42 -33 95 0 50 4 65 27 91 33 40 54 49 121 49
      46 1 57 -3 88 -31z"/>
      </g>
    </svg>
    <svg version="1.0" xmlns="http://www.w3.org/2000/svg" width="240.000000pt" height="231.000000pt" viewBox="0 0 840.000000 631.000000" preserveAspectRatio="xMidYMid meet" display="block" id="education">
      <metadata>
        EDUCATION ICON
      </metadata>
      <g transform="translate(0.000000,631.000000) scale(0.100000,-0.100000)"
      fill="#000000" stroke="none">
      <path d="M4210 5891 c-30 -11 -134 -46 -230 -79 -203 -70 -1007 -344 -1385
      -472 -435 -148 -768 -261 -1265 -430 -261 -89 -552 -188 -647 -220 -200 -68
      -269 -102 -301 -150 -27 -41 -23 -72 16 -113 37 -40 85 -63 247 -118 367 -124
      673 -229 698 -238 l28 -11 -74 -88 c-98 -115 -129 -163 -187 -285 -77 -161
      -130 -406 -130 -600 0 -45 -3 -112 -6 -148 -6 -64 -8 -67 -41 -83 -54 -26
      -137 -110 -166 -169 -84 -173 -34 -377 122 -491 55 -41 54 -21 15 -215 -88
      -435 -289 -849 -612 -1261 -41 -52 -79 -100 -83 -106 -8 -10 121 -111 229
      -178 64 -40 194 -104 267 -131 l66 -25 62 31 c87 44 172 106 240 176 142 146
      218 307 269 568 29 150 36 573 13 894 l-16 244 44 46 c59 61 83 105 103 182
      34 134 -7 273 -112 376 l-57 55 7 109 c18 294 93 545 219 734 48 72 201 225
      225 225 9 0 154 -47 322 -104 168 -58 512 -175 765 -261 253 -86 684 -233 959
      -327 384 -131 505 -169 528 -164 17 3 74 22 127 40 53 19 299 104 546 190 248
      85 583 200 745 256 420 145 1065 367 1721 593 311 107 588 207 616 221 98 49
      127 116 77 176 -48 56 17 32 -1414 525 -250 86 -511 176 -580 200 -114 39
      -593 205 -1350 465 -157 54 -337 117 -400 139 -130 46 -143 47 -220 22z"/>
      <path d="M6955 3389 c-11 -5 -551 -191 -1200 -414 -649 -223 -1231 -424 -1293
      -446 -62 -21 -126 -39 -141 -39 -16 0 -87 21 -157 46 -71 25 -352 121 -624
      214 -272 92 -581 198 -687 234 -105 36 -312 106 -460 156 -147 50 -333 113
      -411 141 -79 27 -148 49 -153 49 -6 0 -9 -342 -7 -907 l3 -908 38 -79 c176
      -369 943 -654 1997 -742 243 -20 775 -23 1025 -5 1096 78 1930 390 2074 777
      21 54 21 65 19 993 -3 934 -3 938 -23 930z"/>
      </g>
    </svg>
    <svg version="1.0" xmlns="http://www.w3.org/2000/svg" width="234.000000pt" height="215.000000pt" viewBox="0 0 234.000000 215.000000" preserveAspectRatio="xMidYMid meet" display="block" id="experience">
      <metadata>
      EXPERIENCE SVG
      </metadata>
      <g transform="translate(0.000000,215.000000) scale(0.100000,-0.100000)"
      fill="#000000" stroke="none">
      <path d="M938 2013 c-64 -22 -137 -80 -162 -128 -16 -31 -22 -63 -24 -142 l-4
      -102 -286 -3 c-271 -3 -289 -4 -327 -24 -97 -52 -105 -81 -105 -357 0 -247 -3
      -235 68 -271 l32 -17 0 -420 c0 -448 2 -463 49 -489 13 -7 344 -10 991 -10
      l972 0 34 34 34 34 0 426 0 425 33 17 c70 36 67 23 67 277 0 214 -2 234 -21
      274 -15 30 -35 52 -67 71 l-47 27 -292 3 -293 3 0 92 c0 110 -17 154 -80 211
      -82 74 -110 81 -330 83 -156 1 -204 -1 -242 -14z m427 -114 c21 -6 54 -26 72
      -44 32 -32 33 -34 33 -124 l0 -91 -300 0 -300 0 0 85 c0 119 16 144 110 178
      28 10 345 7 385 -4z m813 -401 c8 -8 12 -68 12 -204 l0 -191 -147 -67 c-179
      -82 -334 -136 -486 -170 -63 -14 -119 -26 -126 -26 -6 0 -11 17 -11 40 0 62
      -24 108 -64 125 -50 21 -322 21 -372 0 -40 -17 -64 -63 -64 -125 0 -23 -5 -40
      -11 -40 -34 0 -256 57 -352 90 -110 38 -340 137 -384 166 -22 14 -23 19 -23
      199 0 154 3 186 16 199 14 14 119 16 1008 16 758 0 995 -3 1004 -12z m-1577
      -706 c68 -22 168 -48 221 -58 l96 -18 6 -47 c5 -36 14 -54 37 -73 30 -26 32
      -26 210 -26 l179 0 31 28 c23 21 32 39 36 72 l5 45 112 22 c130 26 281 74 441
      142 l115 49 0 -374 0 -374 -920 0 -920 0 0 374 0 374 114 -48 c62 -27 169 -66
      237 -88z m689 3 l0 -125 -120 0 -120 0 0 125 0 125 120 0 120 0 0 -125z"/>
      </g>
    </svg>
    <svg version="1.0" xmlns="http://www.w3.org/2000/svg" width="218.000000pt" height="231.000000pt" viewBox="0 0 218.000000 231.000000" preserveAspectRatio="xMidYMid meet" display="block" id="projects">
      <metadata>
        PROJECTS SVG
      </metadata>
      <g transform="translate(0.000000,231.000000) scale(0.100000,-0.100000)" fill="#000000" stroke="none">
      <path d="M111 2184 l-31 -26 0 -893 0 -893 31 -26 31 -26 500 0 500 0 39 -34
      c98 -83 221 -126 364 -126 158 0 289 55 398 168 106 110 157 236 157 387 0
      145 -55 285 -150 383 l-50 50 0 485 c0 328 -4 494 -11 516 -22 64 17 61 -908
      61 l-839 0 -31 -26z m1717 -516 c2 -434 -1 -494 -23 -458 -3 5 -43 21 -88 36
      -171 54 -378 22 -506 -77 -22 -18 -46 -19 -317 -19 l-294 0 0 -35 0 -35 255 0
      255 0 -40 -61 c-21 -33 -48 -89 -60 -125 l-22 -64 -194 0 -194 0 0 -35 0 -35
      190 0 190 0 0 -58 c0 -76 22 -162 64 -244 l34 -68 -463 0 c-413 0 -464 2 -469
      16 -8 21 -8 1698 0 1718 6 15 86 16 843 14 l836 -3 3 -467z m-187 -472 c231
      -49 389 -245 389 -481 0 -198 -105 -362 -285 -446 -254 -119 -558 5 -666 272
      -34 83 -38 234 -9 319 44 129 126 229 239 289 106 56 215 71 332 47z"/>
      <path d="M600 1765 l0 -35 515 0 515 0 0 35 0 35 -515 0 -515 0 0 -35z"/>
      <path d="M600 1440 l0 -30 515 0 515 0 0 30 0 30 -515 0 -515 0 0 -30z"/>
      <path d="M1676 715 l-159 -153 -100 84 -100 83 -18 -23 c-11 -14 -19 -26 -19
      -29 0 -2 54 -50 120 -106 l120 -102 185 178 184 178 -21 22 c-12 13 -24 23
      -27 22 -3 0 -78 -69 -165 -154z"/>
      </g>
    </svg>
    <svg version="1.0" xmlns="http://www.w3.org/2000/svg" width="219.000000pt" height="230.000000pt" viewBox="0 0 219.000000 230.000000" preserveAspectRatio="xMidYMid meet" display="block" id="blogs">
      <metadata>
      BLOGS SVG
      </metadata>
      <g transform="translate(0.000000,230.000000) scale(0.100000,-0.100000)"
      fill="#000000" stroke="none">
      <path d="M299 2166 c-133 -54 -213 -152 -238 -290 -15 -84 -15 -1386 0 -1458
      26 -122 99 -217 207 -270 l67 -33 760 0 760 0 57 27 c115 54 194 156 217 282
      12 66 16 716 4 716 -4 0 -33 -26 -65 -57 l-58 -57 0 -276 c0 -325 -5 -354 -77
      -431 -82 -88 -40 -84 -843 -84 l-705 0 -47 23 c-25 13 -65 43 -87 67 -73 80
      -72 62 -69 851 3 695 3 699 25 739 28 54 100 119 149 136 32 11 169 14 739 14
      778 0 745 3 823 -68 71 -66 85 -104 90 -234 l4 -112 30 -10 c16 -6 42 -19 57
      -31 16 -11 32 -20 36 -20 15 0 -2 293 -20 346 -34 102 -125 194 -230 233 -55
      21 -70 21 -793 21 l-737 0 -56 -24z"/>
      <path d="M442 1738 l3 -63 650 0 650 0 3 63 3 62 -656 0 -656 0 3 -62z"/>
      <path d="M440 1475 l0 -65 608 0 608 0 47 48 c87 88 135 82 -608 82 l-655 0 0
      -65z"/>
      <path d="M1954 1512 c-12 -4 -179 -162 -373 -352 l-351 -344 0 -93 0 -93 103
      0 102 0 348 348 c341 341 347 348 347 387 0 36 -6 47 -52 92 -54 53 -86 67
      -124 55z"/>
      <path d="M440 1215 l0 -65 478 0 478 0 64 65 64 65 -542 0 -542 0 0 -65z"/>
      <path d="M440 955 l0 -65 348 0 348 0 64 65 64 65 -412 0 -412 0 0 -65z"/>
      <path d="M440 695 l0 -65 325 0 325 0 0 65 0 65 -325 0 -325 0 0 -65z"/>
      </g>
    </svg>
    <svg version="1.0" xmlns="http://www.w3.org/2000/svg" width="213.000000pt" height="237.000000pt" viewBox="0 0 213.000000 237.000000" preserveAspectRatio="xMidYMid meet" display="block" id="resume">
      <metadata>
        RESUME ICON
      </metadata>
      <g transform="translate(0.000000,237.000000) scale(0.100000,-0.100000)"
      fill="#000000" stroke="none">
      <path d="M30 1160 l0 -1100 757 0 757 0 -44 45 -44 45 -663 0 -663 0 0 1010 0
      1010 810 0 810 0 0 -540 0 -540 50 0 50 0 0 585 0 585 -910 0 -910 0 0 -1100z"/>
      <path d="M443 1960 c-39 -16 -53 -50 -52 -130 1 -53 7 -82 20 -104 52 -86 48
      -104 -29 -141 -67 -31 -102 -61 -102 -87 0 -17 14 -18 215 -18 177 0 215 2
      215 14 0 26 -37 59 -101 90 -54 26 -65 35 -67 59 -2 16 2 36 10 45 32 40 42
      72 45 142 1 41 -1 80 -5 86 -11 15 -90 54 -110 53 -9 0 -27 -4 -39 -9z"/>
      <path d="M977 1852 c-22 -24 -21 -38 3 -62 19 -19 33 -20 226 -20 122 0 213 4
      225 10 22 12 26 59 7 78 -9 9 -73 12 -228 12 -197 0 -218 -2 -233 -18z"/>
      <path d="M970 1601 c-14 -27 -13 -37 6 -55 13 -14 49 -16 233 -16 239 0 246 2
      239 57 l-3 28 -232 3 c-221 2 -233 1 -243 -17z"/>
      <path d="M281 1108 c-6 -15 -5 -30 4 -43 12 -19 25 -20 380 -23 386 -2 395 -1
      395 42 0 46 -4 46 -397 46 l-374 0 -8 -22z"/>
      <path d="M1508 768 l-3 -223 -123 -5 -124 -5 187 -215 c103 -118 197 -226 210
      -239 l23 -23 204 233 c112 129 207 239 210 244 4 7 -37 9 -118 7 l-124 -3 0
      225 0 226 -170 0 -170 0 -2 -222z m242 -98 l0 -220 65 0 c36 0 65 -3 65 -6 0
      -8 -190 -228 -200 -232 -8 -3 -210 221 -210 232 0 3 29 6 65 6 l65 0 0 220 0
      220 75 0 75 0 0 -220z"/>
      <path d="M286 818 c-20 -29 -20 -34 4 -58 19 -19 33 -20 301 -20 174 0 288 4
      300 10 12 7 19 21 19 40 0 19 -7 33 -19 40 -12 6 -127 10 -305 10 -283 0 -285
      0 -300 -22z"/>
      <path d="M281 518 c-6 -15 -5 -30 4 -43 12 -19 25 -20 380 -23 386 -2 395 -1
      395 42 0 46 -4 46 -397 46 l-374 0 -8 -22z"/>
      </g>
    </svg>
    <svg version="1.1" xmlns="http://www.w3.org/2000/svg" x="0px" y="0px" viewBox="0 0 250 250" style="enable-background:new 0 0 250 250;" xml:space="preserve" display="block" id="angular">
      <style type="text/css">
        .st0{fill:#DD0031;}
        .st1{fill:#C3002F;}
        .st2{fill:#FFFFFF;}
      </style>
      <g>
        <polygon class="st0" points="125,30 125,30 125,30 31.9,63.2 46.1,186.3 125,230 125,230 125,230 203.9,186.3 218.1,63.2 	"/>
        <polygon class="st1" points="125,30 125,52.2 125,52.1 125,153.4 125,153.4 125,230 125,230 203.9,186.3 218.1,63.2 125,30 	"/>
        <path class="st2" d="M125,52.1L66.8,182.6h0h21.7h0l11.7-29.2h49.4l11.7,29.2h0h21.7h0L125,52.1L125,52.1L125,52.1L125,52.1
          L125,52.1z M142,135.4H108l17-40.9L142,135.4z"/>
      </g>
    </svg>
  </defs>
</svg>
